<svg width="163" height="126" viewBox="0 0 163 126" fill="none" xmlns="http://www.w3.org/2000/svg">
<g filter="url(#filter0_f_6_175)">
<path d="M60.8049 87.8403C60.8049 87.8403 99.3129 88.2094 107.65 85.7881C115.988 83.3668 115.977 70.8 107.65 67.7022C99.3235 64.6045 96.4778 75.6772 96.4778 75.6772" stroke="#D0D0D0" stroke-width="5" stroke-linecap="round"/>
<path d="M41.0609 100.766C41.0609 100.766 69.3214 98.213 81.7801 100.766C94.2387 103.32 90.2716 110.645 84.3671 110.98C78.4627 111.314 73.0141 107.435 73.0141 107.435" stroke="#D0D0D0" stroke-width="5" stroke-linecap="round"/>
<path d="M101.211 100.748H112.447" stroke="#D0D0D0" stroke-width="5" stroke-linecap="round"/>
<path d="M44.8359 75.0455C60.1167 75.0455 72.5043 62.595 72.5043 47.2366C72.5043 31.8782 60.1167 19.4278 44.8359 19.4278C29.555 19.4278 17.1675 31.8782 17.1675 47.2366C17.1675 62.595 29.555 75.0455 44.8359 75.0455Z" fill="#FA9E42"/>
<g filter="url(#filter1_f_6_175)">
<path d="M42.8366 43.2819C52.0323 38.3977 57.1756 30.0869 54.3245 24.7192C51.4735 19.3514 41.7077 18.9594 32.5121 23.8436C23.3165 28.7278 18.1732 37.0387 21.0242 42.4064C23.8752 47.7742 33.641 48.1661 42.8366 43.2819Z" fill="#F8E36F"/>
</g>
<g filter="url(#filter2_d_6_175)">
<path d="M96.8573 93.8659H43.0845C37.8682 93.8619 32.8555 91.8402 29.096 88.224C25.3365 84.6078 23.1216 79.6775 22.915 74.4652C22.7084 69.2529 24.5261 64.1628 27.9876 60.2604C31.4491 56.358 36.286 53.9459 41.4857 53.529C42.2272 48.2931 44.5916 43.4214 48.2462 39.5993C51.9009 35.7772 56.6618 33.1971 61.8593 32.2219C67.0568 31.2468 72.4292 31.9256 77.2208 34.163C82.0123 36.4004 85.9818 40.0838 88.5708 44.6948C93.3194 43.051 98.4501 42.8589 103.308 44.1431C108.167 45.4273 112.532 48.1295 115.848 51.9051C119.164 55.6806 121.281 60.3584 121.927 65.3417C122.574 70.325 121.721 75.388 119.479 79.8848C118.162 83.9475 115.593 87.4889 112.139 90.0007C108.685 92.5125 104.525 93.8656 100.254 93.8659H96.8573Z" fill="url(#paint0_linear_6_175)"/>
<path d="M100.254 93.5848C102.422 93.5848 104.554 93.2386 106.591 92.5558C108.56 91.8954 110.409 90.9318 112.085 89.6917C113.743 88.4659 115.196 86.9974 116.404 85.3272C117.627 83.6362 118.572 81.776 119.211 79.7983L119.218 79.778L119.227 79.759C120.078 78.0601 120.732 76.2629 121.173 74.4174C121.627 72.5184 121.857 70.5561 121.857 68.585C121.857 66.8886 121.686 65.1933 121.349 63.5463C121.021 61.9413 120.531 60.3626 119.893 58.854C119.266 57.3727 118.491 55.944 117.588 54.6075C116.693 53.2837 115.666 52.0388 114.535 50.9074C113.404 49.7761 112.159 48.7489 110.835 47.8545C109.498 46.9516 108.07 46.1761 106.588 45.5496C105.08 44.9115 103.501 44.4214 101.896 44.093C100.249 43.756 98.5538 43.5851 96.8574 43.5851C94.0486 43.5851 91.2915 44.0473 88.6628 44.959L88.441 45.0359L88.3259 44.8313C86.1866 41.0274 83.0749 37.8329 79.3271 35.5931C77.4317 34.4603 75.3954 33.585 73.2748 32.9914C71.087 32.379 68.8145 32.0684 66.5205 32.0684C63.4349 32.0684 60.4229 32.6238 57.5681 33.719C54.8103 34.777 52.2803 36.3054 50.0486 38.2617C47.8298 40.2067 45.9884 42.5016 44.5757 45.0826C43.1283 47.7271 42.1822 50.5816 41.7639 53.5669L41.7326 53.7903L41.5076 53.8079C38.9913 54.0049 36.5703 54.6674 34.3118 55.7771C32.1173 56.8553 30.1577 58.3137 28.4875 60.1117C25.0554 63.8061 23.1653 68.6197 23.1653 73.6656C23.1653 76.3548 23.6919 78.9634 24.7305 81.419C25.2297 82.5992 25.8476 83.7376 26.567 84.8024C27.2797 85.8572 28.0981 86.8492 28.9995 87.7506C29.901 88.6521 30.8929 89.4705 31.9477 90.1831C33.0126 90.9025 34.1509 91.5204 35.3311 92.0196C37.7867 93.0582 40.3953 93.5848 43.0845 93.5848H96.8574H100.254ZM100.254 93.8657H96.8574H43.0845C31.9283 93.8657 22.8844 84.8218 22.8844 73.6656C22.8844 63.0474 31.0767 54.3427 41.4857 53.5279C43.2074 41.2418 53.7598 31.7875 66.5205 31.7875C75.9873 31.7875 84.2387 36.9906 88.5707 44.6936C91.1668 43.7933 93.9549 43.3042 96.8574 43.3042C110.819 43.3042 122.138 54.6229 122.138 68.585C122.138 72.6465 121.181 76.4841 119.479 79.8847C116.856 87.9976 109.24 93.8657 100.254 93.8657Z" fill="white" fill-opacity="0.5"/>
</g>
</g>
<defs>
<filter id="filter0_f_6_175" x="13.1675" y="15.4278" width="112.971" height="102.072" filterUnits="userSpaceOnUse" color-interpolation-filters="sRGB">
<feFlood flood-opacity="0" result="BackgroundImageFix"/>
<feBlend mode="normal" in="SourceGraphic" in2="BackgroundImageFix" result="shape"/>
<feGaussianBlur stdDeviation="2" result="effect1_foregroundBlur_6_175"/>
</filter>
<filter id="filter1_f_6_175" x="0.237671" y="0.422241" width="74.8734" height="66.2811" filterUnits="userSpaceOnUse" color-interpolation-filters="sRGB">
<feFlood flood-opacity="0" result="BackgroundImageFix"/>
<feBlend mode="normal" in="SourceGraphic" in2="BackgroundImageFix" result="shape"/>
<feGaussianBlur stdDeviation="10" result="effect1_foregroundBlur_6_175"/>
</filter>
<filter id="filter2_d_6_175" x="2.8844" y="3.78754" width="159.254" height="122.078" filterUnits="userSpaceOnUse" color-interpolation-filters="sRGB">
<feFlood flood-opacity="0" result="BackgroundImageFix"/>
<feColorMatrix in="SourceAlpha" type="matrix" values="0 0 0 0 0 0 0 0 0 0 0 0 0 0 0 0 0 0 127 0" result="hardAlpha"/>
<feOffset dx="10" dy="2"/>
<feGaussianBlur stdDeviation="15"/>
<feColorMatrix type="matrix" values="0 0 0 0 0.501961 0 0 0 0 0.501961 0 0 0 0 0.501961 0 0 0 0.302 0"/>
<feBlend mode="normal" in2="BackgroundImageFix" result="effect1_dropShadow_6_175"/>
<feBlend mode="normal" in="SourceGraphic" in2="effect1_dropShadow_6_175" result="shape"/>
</filter>
<linearGradient id="paint0_linear_6_175" x1="72.5183" y1="31.7883" x2="101.35" y2="101.497" gradientUnits="userSpaceOnUse">
<stop stop-color="white" stop-opacity="0.604"/>
<stop offset="1" stop-color="white" stop-opacity="0.2"/>
</linearGradient>
</defs>
</svg>
