<svg width="156" height="126" viewBox="0 0 156 126" fill="none" xmlns="http://www.w3.org/2000/svg">
<g filter="url(#filter0_f_22_390)">
<path d="M43.4203 76.3424C43.5908 76.3475 45.3209 83.4678 45.3209 86.2347C45.3209 89.0015 44.4699 91.2449 43.4203 91.2449C42.3707 91.2449 41.5197 89.0018 41.5197 86.2349C41.5197 83.4681 43.2487 76.3376 43.4203 76.3424Z" fill="#42A0F0"/>
<path d="M43.1306 84.6456C43.4082 84.7464 43.4926 85.373 43.3192 86.0456C43.1457 86.7183 42.7799 87.1816 42.5022 87.0811C42.2245 86.9807 42.1399 86.3537 42.3136 85.6811C42.4873 85.0085 42.8526 84.545 43.1306 84.6456Z" fill="white"/>
<path d="M59.612 76.3424C59.7824 76.3475 61.5126 83.4678 61.5126 86.2347C61.5126 89.0015 60.6616 91.2449 59.612 91.2449C58.5623 91.2449 57.7113 89.0018 57.7113 86.2349C57.7113 83.4681 59.4404 76.3376 59.612 76.3424Z" fill="#42A0F0"/>
<path d="M59.3221 84.6456C59.5997 84.7464 59.6841 85.373 59.5107 86.0456C59.3373 86.7183 58.9714 87.1816 58.6937 87.0811C58.416 86.9807 58.3314 86.3537 58.5051 85.6811C58.6788 85.0085 59.0442 84.545 59.3221 84.6456Z" fill="white"/>
<path d="M75.8035 76.3424C75.974 76.3475 77.7041 83.4678 77.7041 86.2347C77.7041 89.0015 76.8531 91.2449 75.8035 91.2449C74.7539 91.2449 73.9028 89.0018 73.9028 86.2349C73.9028 83.4681 75.6319 76.3376 75.8035 76.3424Z" fill="#42A0F0"/>
<path d="M75.5136 84.6456C75.7912 84.7464 75.8757 85.373 75.7022 86.0456C75.5288 86.7183 75.1629 87.1816 74.8853 87.0811C74.6076 86.9807 74.523 86.3537 74.6967 85.6811C74.8703 85.0085 75.2357 84.545 75.5136 84.6456Z" fill="white"/>
<path d="M91.995 75.4957C92.1655 75.5008 93.8957 82.6211 93.8957 85.388C93.8957 88.1548 93.0446 90.3982 91.995 90.3982C90.9454 90.3982 90.0944 88.1551 90.0944 85.3883C90.0944 82.6214 91.8234 75.4909 91.995 75.4957Z" fill="#42A0F0"/>
<path d="M91.7052 83.7989C91.9828 83.8997 92.0672 84.5263 91.8938 85.199C91.7203 85.8716 91.3545 86.335 91.0768 86.2345C90.7991 86.134 90.7145 85.507 90.8882 84.8344C91.0619 84.1619 91.4272 83.6983 91.7052 83.7989Z" fill="white"/>
<path d="M67.2313 95.251C67.4018 95.2561 69.132 102.376 69.132 105.143C69.132 107.91 68.2809 110.153 67.2313 110.153C66.1817 110.153 65.3307 107.91 65.3307 105.144C65.3307 102.377 67.0598 95.2462 67.2313 95.251Z" fill="#42A0F0"/>
<path d="M66.9415 103.554C67.2191 103.655 67.3035 104.282 67.1301 104.954C66.9567 105.627 66.5908 106.09 66.3131 105.99C66.0354 105.889 65.9508 105.262 66.1245 104.59C66.2982 103.917 66.6635 103.454 66.9415 103.554Z" fill="white"/>
<path d="M83.4229 95.251C83.5933 95.2561 85.3235 102.376 85.3235 105.143C85.3235 107.91 84.4725 110.153 83.4229 110.153C82.3733 110.153 81.5222 107.91 81.5222 105.144C81.5222 102.377 83.2513 95.2462 83.4229 95.251Z" fill="#42A0F0"/>
<path d="M83.133 103.554C83.4106 103.655 83.495 104.282 83.3216 104.954C83.1482 105.627 82.7823 106.09 82.5046 105.99C82.227 105.889 82.1424 105.262 82.316 104.59C82.4897 103.917 82.8551 103.454 83.133 103.554Z" fill="white"/>
<path d="M100.567 95.251C100.738 95.2561 102.468 102.376 102.468 105.143C102.468 107.91 101.617 110.153 100.567 110.153C99.5174 110.153 98.6664 107.91 98.6664 105.144C98.6664 102.377 100.395 95.2462 100.567 95.251Z" fill="#42A0F0"/>
<path d="M100.277 103.554C100.555 103.655 100.639 104.282 100.466 104.954C100.292 105.627 99.9265 106.09 99.6488 105.99C99.3711 105.889 99.2865 105.262 99.4602 104.59C99.6339 103.917 99.9992 103.454 100.277 103.554Z" fill="white"/>
<path d="M51.0401 96.0975C51.2105 96.1026 52.9407 103.223 52.9407 105.99C52.9407 108.757 52.0897 111 51.0401 111C49.9904 111 49.1394 108.757 49.1394 105.99C49.1394 103.223 50.8685 96.0927 51.0401 96.0975Z" fill="#42A0F0"/>
<path d="M50.7502 104.401C51.0278 104.502 51.1122 105.128 50.9388 105.801C50.7654 106.474 50.3995 106.937 50.1218 106.836C49.8441 106.736 49.7595 106.109 49.9332 105.436C50.1069 104.764 50.4723 104.3 50.7502 104.401Z" fill="white"/>
<path d="M35.8008 95.2509C35.9713 95.2559 37.7014 102.376 37.7014 105.143C37.7014 107.91 36.8504 110.153 35.8008 110.153C34.7512 110.153 33.9001 107.91 33.9001 105.143C33.9001 102.377 35.6292 95.2461 35.8008 95.2509Z" fill="#42A0F0"/>
<path d="M35.5109 103.554C35.7885 103.655 35.873 104.281 35.6995 104.954C35.5261 105.627 35.1603 106.09 34.8826 105.99C34.6049 105.889 34.5203 105.262 34.694 104.59C34.8677 103.917 35.233 103.453 35.5109 103.554Z" fill="white"/>
<path d="M37.8999 16.6152C39.7937 16.6147 41.6828 16.8146 43.5381 17.2118C47.1188 17.9822 50.5184 19.4841 53.5416 21.6313C57.7301 24.5968 61.0765 28.686 63.2292 33.4693C65.3818 38.2526 66.2613 43.5533 65.775 48.8143C65.2888 54.0753 63.4549 59.1024 60.4659 63.3672C57.477 67.6319 53.4435 70.9769 48.7894 73.0506C47.0975 73.8016 45.3383 74.3749 43.5378 74.7623C39.6336 75.5892 35.6054 75.5377 31.7218 74.611C27.8381 73.6843 24.1881 71.9039 21.0148 69.3882C17.8415 66.8724 15.2178 63.6793 13.3185 60.0214C11.4192 56.3635 10.2879 52.3248 9.99995 48.1743C13.0614 48.9228 16.2415 48.9709 19.3224 48.3155C22.0871 47.724 24.7132 46.5697 27.0509 44.9184C30.5259 42.4678 33.246 39.0171 34.8815 34.9844C35.4342 33.6186 35.856 32.199 36.1408 30.7463C36.7479 27.6339 36.7254 24.4232 36.0749 21.3203C35.7476 19.7688 35.2636 18.2579 34.6311 16.813C35.7161 16.6811 36.8075 16.6151 37.8999 16.6152Z" fill="#713FFD"/>
<g filter="url(#filter1_f_22_390)">
<path d="M56.8311 25.6949C50.5511 19.7883 42.3242 18.6382 38.4557 23.1261C34.5873 27.614 36.5422 36.0405 42.8222 41.9471C49.1022 47.8538 57.3291 49.0039 61.1976 44.516C65.066 40.028 63.1111 31.6016 56.8311 25.6949Z" fill="#A586FC"/>
</g>
<g filter="url(#filter2_d_22_390)">
<path d="M91.6846 93.1746H39.9654C34.9482 93.1706 30.127 91.1395 26.5111 87.5063C22.8952 83.8731 20.7649 78.9197 20.5662 73.6829C20.3674 68.4461 22.1157 63.3321 25.445 59.4113C28.7743 55.4906 33.4265 53.0671 38.4276 52.6483C39.1408 47.3878 41.4149 42.4932 44.93 38.6532C48.445 34.8132 53.0242 32.2209 58.0232 31.2412C63.0222 30.2614 68.1894 30.9435 72.798 33.1914C77.4065 35.4393 81.2244 39.1399 83.7146 43.7726C88.2818 42.1211 93.2164 41.9281 97.889 43.2183C102.562 44.5084 106.76 47.2231 109.95 51.0163C113.139 54.8094 115.175 59.509 115.797 64.5155C116.419 69.5221 115.599 74.6088 113.442 79.1267C112.177 83.2089 109.706 86.7673 106.384 89.2911C103.061 91.815 99.0593 93.1745 94.9515 93.1746H91.6846Z" fill="url(#paint0_linear_22_390)"/>
<path d="M94.9514 92.8923C97.0372 92.8923 99.088 92.5444 101.047 91.8583C102.941 91.1948 104.719 90.2267 106.332 88.9806C107.926 87.749 109.324 86.2735 110.486 84.5953C111.662 82.8962 112.571 81.0271 113.185 79.0398L113.192 79.0195L113.201 79.0003C114.018 77.2936 114.648 75.4882 115.072 73.6341C115.509 71.7262 115.73 69.7549 115.73 67.775C115.73 66.0706 115.565 64.3674 115.241 62.7127C114.925 61.1002 114.454 59.514 113.84 57.9983C113.238 56.5101 112.492 55.0747 111.623 53.7319C110.763 52.4019 109.775 51.1511 108.687 50.0144C107.599 48.8777 106.402 47.8458 105.128 46.9472C103.843 46.0401 102.469 45.2609 101.044 44.6315C99.5931 43.9904 98.0746 43.498 96.5309 43.168C94.9468 42.8294 93.3163 42.6577 91.6847 42.6577C88.9831 42.6577 86.3313 43.1221 83.803 44.0381L83.5896 44.1154L83.4789 43.9098C81.4214 40.0881 78.4285 36.8785 74.8238 34.6282C73.0008 33.4901 71.0423 32.6107 69.0026 32.0143C66.8984 31.3989 64.7127 31.087 62.5063 31.087C59.5385 31.087 56.6416 31.6449 53.8958 32.7453C51.2433 33.8083 48.81 35.3438 46.6635 37.3093C44.5293 39.2634 42.7583 41.5691 41.3995 44.1623C40.0074 46.8192 39.0975 49.6871 38.6951 52.6864L38.665 52.9109L38.4486 52.9286C36.0284 53.1265 33.6998 53.7921 31.5276 54.907C29.4169 55.9902 27.5322 57.4555 25.9257 59.2619C22.6247 62.9737 20.8068 67.8099 20.8068 72.8795C20.8068 75.5813 21.3133 78.2022 22.3123 80.6693C22.7924 81.8551 23.3867 82.9988 24.0786 84.0686C24.764 85.1284 25.5512 86.125 26.4182 87.0306C27.2852 87.9363 28.2393 88.7586 29.2538 89.4746C30.278 90.1973 31.3729 90.8181 32.508 91.3197C34.8698 92.3632 37.3788 92.8923 39.9653 92.8923H91.6847H94.9514ZM94.9514 93.1745H91.6847H39.9653C29.2352 93.1745 20.5366 84.0881 20.5366 72.8795C20.5366 62.2114 28.416 53.4658 38.4275 52.6472C40.0835 40.3034 50.2329 30.8047 62.5063 30.8047C71.6116 30.8047 79.5478 36.0323 83.7144 43.7715C86.2114 42.8669 88.893 42.3755 91.6847 42.3755C105.114 42.3755 116 53.7474 116 67.775C116 71.8548 115.079 75.7106 113.442 79.1266C110.92 87.2786 103.595 93.1745 94.9514 93.1745Z" fill="white" fill-opacity="0.5"/>
</g>
</g>
<defs>
<filter id="filter0_f_22_390" x="6" y="12.6152" width="114" height="102.385" filterUnits="userSpaceOnUse" color-interpolation-filters="sRGB">
<feFlood flood-opacity="0" result="BackgroundImageFix"/>
<feBlend mode="normal" in="SourceGraphic" in2="BackgroundImageFix" result="shape"/>
<feGaussianBlur stdDeviation="2" result="effect1_foregroundBlur_22_390"/>
</filter>
<filter id="filter1_f_22_390" x="16.4696" y="0.388428" width="66.7141" height="66.8652" filterUnits="userSpaceOnUse" color-interpolation-filters="sRGB">
<feFlood flood-opacity="0" result="BackgroundImageFix"/>
<feBlend mode="normal" in="SourceGraphic" in2="BackgroundImageFix" result="shape"/>
<feGaussianBlur stdDeviation="10" result="effect1_foregroundBlur_22_390"/>
</filter>
<filter id="filter2_d_22_390" x="0.536621" y="2.80475" width="155.463" height="122.37" filterUnits="userSpaceOnUse" color-interpolation-filters="sRGB">
<feFlood flood-opacity="0" result="BackgroundImageFix"/>
<feColorMatrix in="SourceAlpha" type="matrix" values="0 0 0 0 0 0 0 0 0 0 0 0 0 0 0 0 0 0 127 0" result="hardAlpha"/>
<feOffset dx="10" dy="2"/>
<feGaussianBlur stdDeviation="15"/>
<feColorMatrix type="matrix" values="0 0 0 0 0.501961 0 0 0 0 0.501961 0 0 0 0 0.501961 0 0 0 0.302 0"/>
<feBlend mode="normal" in2="BackgroundImageFix" result="effect1_dropShadow_22_390"/>
<feBlend mode="normal" in="SourceGraphic" in2="effect1_dropShadow_22_390" result="shape"/>
</filter>
<linearGradient id="paint0_linear_22_390" x1="68.2751" y1="30.8055" x2="98.1366" y2="99.921" gradientUnits="userSpaceOnUse">
<stop stop-color="white" stop-opacity="0.604"/>
<stop offset="1" stop-color="white" stop-opacity="0.2"/>
</linearGradient>
</defs>
</svg>
